<svg viewBox="0 0 512 512" xmlns="http://www.w3.org/2000/svg">
  <circle cx="256.07" cy="256" fill="#3cc1a7" r="256"/>
  <path d="m364.43 292.59a36.3 36.3 0 1 1 36.3-36.3 36.34 36.34 0 0 1 -36.3 36.3zm0-55.38a19.08 19.08 0 1 0 19.09 19.09 19.11 19.11 0 0 0 -19.09-19.1z" fill="#231f20"/><path d="m146.58 292.59a36.3 36.3 0 1 1 36.3-36.3 36.34 36.34 0 0 1 -36.3 36.3zm0-55.38a19.08 19.08 0 1 0 19.08 19.09 19.11 19.11 0 0 0 -19.08-19.1z" fill="#231f20"/>
  <path d="m147.58 180.44h216.86v194.48h-216.86z" fill="#fff"/>
  <g fill="#231f20">
    <path d="m373 383.52h-234v-211.69h234zm-216.82-17.21h199.64v-177.31h-199.64z"/>
    <path d="m222.62 263.42h-12.37a8.08 8.08 0 0 0 -16.16 0h-12.36a20.45 20.45 0 0 1 40.89 0z"/>
    <path d="m339.22 263.42h-12.37a8.07 8.07 0 0 0 -16.15 0h-12.37a20.44 20.44 0 0 1 40.89 0z"/>
    <path d="m247.4 128.68h17.21v51.76h-17.21z"/>
    <path d="m280.52 145.5h-49v-49h49zm-31.81-17.21h14.6v-14.6h-14.6z"/>
    <path d="m146.58 310.71h217.85v17.21h-217.85z"/>
  </g>
</svg>
